<svg width="132" height="132" viewBox="0 0 132 132" fill="none" xmlns="http://www.w3.org/2000/svg">
<path d="M93.5086 4.97578L81.0305 17.4539L114.546 50.9695L127.024 38.4914C133.47 32.0461 133.47 21.6047 127.024 15.1594L116.866 4.97578C110.421 -1.46953 99.9797 -1.46953 93.5344 4.97578H93.5086ZM75.204 23.2805L15.1079 83.4023C12.4266 86.0836 10.4672 89.4094 9.38442 93.0445L0.257857 124.059C-0.386675 126.251 0.206294 128.597 1.80473 130.195C3.40317 131.794 5.74926 132.387 7.91489 131.768L38.9297 122.641C42.5649 121.559 45.8907 119.599 48.5719 116.918L108.72 56.7961L75.204 23.2805Z" fill="url(#paint0_linear_34_112)"/>
<defs>
<linearGradient id="paint0_linear_34_112" x1="4.16657e-05" y1="0.167957" x2="131.84" y2="132.008" gradientUnits="userSpaceOnUse">
<stop stop-color="#9A9A9A"/>
<stop offset="1" stop-color="white"/>
</linearGradient>
</defs>
</svg>
