<svg width="132" height="132" viewBox="0 0 132 132" fill="none" xmlns="http://www.w3.org/2000/svg">
<path d="M93.5086 4.97583L81.0305 17.454L114.546 50.9696L127.024 38.4915C133.47 32.0461 133.47 21.6047 127.024 15.1594L116.866 4.97583C110.421 -1.46948 99.9797 -1.46948 93.5344 4.97583H93.5086ZM75.2039 23.2805L15.1078 83.4024C12.4266 86.0836 10.4672 89.4094 9.38437 93.0446L0.257811 124.059C-0.38672 126.251 0.206248 128.597 1.80469 130.195C3.40312 131.794 5.74922 132.387 7.91484 131.768L38.9297 122.641C42.5648 121.559 45.8906 119.599 48.5719 116.918L108.72 56.7961L75.2039 23.2805Z" fill="url(#paint0_linear_34_119)"/>
<defs>
<linearGradient id="paint0_linear_34_119" x1="-4.11066e-06" y1="0.168006" x2="131.84" y2="132.008" gradientUnits="userSpaceOnUse">
<stop stop-color="#525252"/>
<stop offset="1"/>
</linearGradient>
</defs>
</svg>
